<svg width="25" height="25" viewBox="0 0 25 25" fill="none" xmlns="http://www.w3.org/2000/svg">
<g clip-path="url(#clip0_30_312)">
<path d="M11.3683 13.6305C11.1692 13.4318 10.932 13.2755 10.6709 13.1709L2.41044 9.85841C2.31181 9.81884 2.22765 9.75004 2.16925 9.66125C2.11085 9.57247 2.08101 9.46794 2.08373 9.3617C2.08645 9.25547 2.1216 9.1526 2.18447 9.06692C2.24734 8.98124 2.33491 8.91684 2.43544 8.88237L22.2271 2.11154C22.3194 2.0782 22.4193 2.07184 22.5151 2.0932C22.6109 2.11455 22.6986 2.16275 22.768 2.23214C22.8374 2.30153 22.8855 2.38925 22.9069 2.48503C22.9283 2.58081 22.9219 2.6807 22.8886 2.773L16.1177 22.5647C16.0833 22.6652 16.0189 22.7528 15.9332 22.8156C15.8475 22.8785 15.7446 22.9136 15.6384 22.9164C15.5322 22.9191 15.4276 22.8892 15.3388 22.8308C15.2501 22.7725 15.1813 22.6883 15.1417 22.5897L11.8292 14.3272C11.7242 14.0662 11.5674 13.8292 11.3683 13.6305ZM11.3683 13.6305L22.7646 2.23654" stroke="#315559" stroke-width="2.66667" stroke-linecap="round" stroke-linejoin="round"/>
</g>
<defs>
<clipPath id="clip0_30_312">
<rect width="25" height="25" fill="white"/>
</clipPath>
</defs>
</svg>
